<svg width="152" height="40" viewBox="0 0 152 40" fill="none" xmlns="http://www.w3.org/2000/svg">
<path d="M24 12L36 0H12V12V24L0 36H24V24V12Z" fill="#230871" style="fill:#230871;fill:color(display-p3 0.1373 0.0314 0.4431);fill-opacity:1;"/>
<path d="M24 12V24H36V0L24 12Z" fill="#00AF9A" style="fill:#00AF9A;fill:color(display-p3 0.0000 0.6863 0.6039);fill-opacity:1;"/>
<path d="M0 36L12 24V12H0V36Z" fill="#00AF9A" style="fill:#00AF9A;fill:color(display-p3 0.0000 0.6863 0.6039);fill-opacity:1;"/>
<path d="M80.9986 16.1729H78.5426V18.6358H80.9986V16.1729Z" fill="#758393" style="fill:#758393;fill:color(display-p3 0.4588 0.5137 0.5765);fill-opacity:1;"/>
<path d="M77.0346 16.1729H74.5786V18.6358H77.0346V16.1729Z" fill="#758393" style="fill:#758393;fill:color(display-p3 0.4588 0.5137 0.5765);fill-opacity:1;"/>
<path d="M69.679 10.0803C69.679 8.642 69.3958 7.33953 68.6633 6.54941C67.7893 5.61731 66.5459 5.22842 64.9702 5.22842H60.0274V4.01855H57.7438V13.9815H54.0876C53.0535 13.9815 52.0071 13.821 51.4162 13.3148C50.8745 12.8581 50.6775 12.105 50.6775 11.0679V5.90126H48.0061V11.3642C48.0061 12.7902 48.3201 14.1914 49.1818 15C50.2528 16.0185 51.6132 16.4383 53.6936 16.4383H60.0274V14.2469H69.6851V10.0803H69.679ZM67.223 11.784H60.0213V7.67287H65.2102C65.8442 7.67287 66.4536 7.96916 66.749 8.35805C67.063 8.75929 67.223 9.27163 67.223 9.97534V11.784Z" fill="#758393" style="fill:#758393;fill:color(display-p3 0.4588 0.5137 0.5765);fill-opacity:1;"/>
<path d="M82.1496 4.35185H79.6936V11.784H74.7694V0H72.3134V14.2469H82.1496V4.35185Z" fill="#758393" style="fill:#758393;fill:color(display-p3 0.4588 0.5137 0.5765);fill-opacity:1;"/>
<path d="M99.6676 0H97.2117V14.2469H99.6676V0Z" fill="#758393" style="fill:#758393;fill:color(display-p3 0.4588 0.5137 0.5765);fill-opacity:1;"/>
<path d="M65.2779 0.796325H62.8404V3.24077H65.2779V0.796325Z" fill="#758393" style="fill:#758393;fill:color(display-p3 0.4588 0.5137 0.5765);fill-opacity:1;"/>
<path d="M144.644 0H142.188V2.49383H144.644V0Z" fill="#758393" style="fill:#758393;fill:color(display-p3 0.4588 0.5137 0.5765);fill-opacity:1;"/>
<path d="M151.975 16.1913H149.519V18.6543H151.975V16.1913Z" fill="#758393" style="fill:#758393;fill:color(display-p3 0.4588 0.5137 0.5765);fill-opacity:1;"/>
<path d="M112.286 14.2469H151.982V4.37037H149.532V11.8025H144.644V4.37037H142.188V11.8025H129.102L129.078 0H126.622L126.646 11.8025H112.717C111.683 11.8025 110.704 11.642 110.107 11.1358C109.565 10.679 109.368 9.92593 109.368 8.88889V5.85185H106.654V9.18519C106.654 10.6111 106.968 12.0123 107.83 12.821C108.901 13.8395 110.193 14.2469 112.28 14.2469" fill="#758393" style="fill:#758393;fill:color(display-p3 0.4588 0.5137 0.5765);fill-opacity:1;"/>
<path d="M120.589 6.9012H117.998V5.91972C117.998 5.54935 118.084 5.2654 118.25 5.0617C118.404 4.87651 118.589 4.79009 118.835 4.79009H120.189V3.36417H118.989C118.22 3.36417 117.61 3.61108 117.192 4.09256C116.785 4.5617 116.576 5.24688 116.576 6.12343V8.3333H120.589V6.9012Z" fill="#758393" style="fill:#758393;fill:color(display-p3 0.4588 0.5137 0.5765);fill-opacity:1;"/>
<path d="M87.2155 14.2469H94.5711V0H92.1151V11.784H87.2339V4.35185H84.778V13.9321C84.778 15.142 84.4456 15.6543 83.4669 15.6543C83.1591 15.6543 82.876 15.6296 82.5251 15.5494V17.9691C82.8267 18.0494 83.2945 18.1173 83.7316 18.1173C86.046 18.1173 87.0801 16.963 87.2216 14.2531" fill="#758393" style="fill:#758393;fill:color(display-p3 0.4588 0.5137 0.5765);fill-opacity:1;"/>
<path d="M59.1411 25.5926C59.1411 23.2654 57.5653 21.0309 53.6444 21.0309H48V36.1296H50.6714V30.1728H53.3243L56.9991 36.1296H60.009L56.0758 29.7963C58.3224 29.0494 59.1411 27.321 59.1411 25.5864M53.0535 27.8395H50.6776V23.5185H53.0535C55.2633 23.5185 56.322 24.1296 56.322 25.642C56.322 27.3889 55.0232 27.8395 53.0535 27.8395Z" fill="#758393" style="fill:#758393;fill:color(display-p3 0.4588 0.5137 0.5765);fill-opacity:1;"/>
<path d="M83.6638 25.8827C82.3035 25.8827 80.9801 26.2346 80.1984 26.6173L79.8845 29.1173C80.8447 28.6482 82.322 28.2408 83.3315 28.2408C84.6733 28.2408 85.5966 28.5556 85.5966 29.6728V29.8148C84.8641 29.7099 84.2055 29.6728 83.6823 29.6728C81.0171 29.6728 79.1212 30.8087 79.1212 33.0124C79.1212 35.4259 81.3187 36.2778 83.7747 36.2778C85.2211 36.2778 86.8031 36 88.0403 35.5124V29.784C88.0403 26.9198 86.1937 25.8889 83.67 25.8889M85.6028 33.8025C85.0796 33.9753 84.4148 34.0803 83.8054 34.0803C82.6051 34.0803 81.6634 33.7654 81.6634 32.858C81.6634 31.9506 82.7098 31.5988 83.947 31.5988C84.4887 31.5988 85.1473 31.6852 85.6028 31.8087V33.8025Z" fill="#758393" style="fill:#758393;fill:color(display-p3 0.4588 0.5137 0.5765);fill-opacity:1;"/>
<path d="M97.2239 26.0185C96.5592 25.9321 95.9683 25.8765 95.5312 25.8765C92.1889 25.8765 89.9915 28.1667 89.9915 31.0988C89.9915 34.0309 92.0966 36.2716 95.7221 36.2716C97.1316 36.2716 98.455 36.0988 99.6615 35.7654V21.8951H97.2239V26.0185ZM97.2239 33.6852C96.6823 33.8086 96.1776 33.8765 95.7098 33.8765C93.7955 33.8765 92.5582 33.0062 92.5582 31.0988C92.5582 29.1914 93.7955 28.2716 95.7098 28.2716C96.1468 28.2716 96.633 28.321 97.2239 28.4815V33.6852Z" fill="#758393" style="fill:#758393;fill:color(display-p3 0.4588 0.5137 0.5765);fill-opacity:1;"/>
<path d="M74.5786 33.4444C73.8646 33.6543 73.2737 33.7099 72.7505 33.7099C71.3902 33.7099 70.8177 33.1667 70.8177 31.3704V26.216H68.3617V32.0679C68.3617 35.2963 70.1406 36.1049 72.6274 36.1049C73.2552 36.1049 73.9138 36.037 74.5786 35.8951V36.1049C74.5786 37.2593 73.5137 37.7469 72.018 37.7469C71.304 37.7469 70.2699 37.5741 69.3958 37.3086V39.6481C70.1776 39.8519 71.2424 40 71.9134 40C75.7974 40 77.0161 38.7963 77.0161 35.321V26.2222H74.5786V33.4568V33.4444Z" fill="#758393" style="fill:#758393;fill:color(display-p3 0.4588 0.5137 0.5765);fill-opacity:1;"/>
<path d="M124.726 25.8827C123.366 25.8827 122.042 26.2346 121.26 26.6173L120.947 29.1173C121.907 28.6482 123.384 28.2408 124.393 28.2408C125.735 28.2408 126.659 28.5556 126.659 29.6728V29.8148C125.926 29.7099 125.268 29.6728 124.744 29.6728C122.079 29.6728 120.183 30.8087 120.183 33.0124C120.183 35.4259 122.381 36.2778 124.837 36.2778C126.283 36.2778 127.865 36 129.102 35.5124V29.784C129.102 26.9198 127.256 25.8889 124.732 25.8889M126.665 33.8025C126.142 33.9753 125.483 34.0803 124.867 34.0803C123.667 34.0803 122.725 33.7654 122.725 32.858C122.725 31.9506 123.772 31.5988 125.009 31.5988C125.551 31.5988 126.209 31.6852 126.665 31.8087V33.8025Z" fill="#758393" style="fill:#758393;fill:color(display-p3 0.4588 0.5137 0.5765);fill-opacity:1;"/>
<path d="M135.498 25.9506C134.433 25.9506 132.605 26.179 131.09 26.4568V36.1358H133.528V28.5371C134.223 28.4136 134.87 28.3457 135.393 28.3457C136.839 28.3457 137.59 28.8889 137.59 30.6852V36.1358H140.028V29.9877C140.028 26.7531 138.009 25.9506 135.498 25.9506Z" fill="#758393" style="fill:#758393;fill:color(display-p3 0.4588 0.5137 0.5765);fill-opacity:1;"/>
<path d="M147.316 31.1729L151.778 26.2963H148.885L144.46 31.1358V21.963H142.016V36.1296H144.46V31.2778L149.076 36.1296H152L147.316 31.1729Z" fill="#758393" style="fill:#758393;fill:color(display-p3 0.4588 0.5137 0.5765);fill-opacity:1;"/>
<path d="M115.314 28.0124C116.742 27.3827 117.413 26.0926 117.413 24.8272C117.413 22.7037 115.727 21.0309 111.972 21.0309H106.685V36.1296H112.717C115.462 36.1296 118.195 34.8642 118.195 31.6975C118.195 30.1728 117.34 28.6235 115.321 28.0124M109.362 23.5247H111.812C113.856 23.5247 114.65 24.2531 114.65 25.2901C114.65 26.5185 113.776 27.1173 111.812 27.1173H109.362V23.5247ZM112.348 33.6358H109.362V29.6358H112.274C114.243 29.6358 115.431 30.0617 115.431 31.6482C115.431 33.0247 114.447 33.642 112.348 33.642" fill="#758393" style="fill:#758393;fill:color(display-p3 0.4588 0.5137 0.5765);fill-opacity:1;"/>
<path d="M65.2779 26.2963H62.8404V36.1296H65.2779V26.2963Z" fill="#758393" style="fill:#758393;fill:color(display-p3 0.4588 0.5137 0.5765);fill-opacity:1;"/>
<path d="M65.2779 21.8889H62.8404V24.3333H65.2779V21.8889Z" fill="#758393" style="fill:#758393;fill:color(display-p3 0.4588 0.5137 0.5765);fill-opacity:1;"/>
</svg>
